HIERARCHY
ROOT Hips
{
    OFFSET 0.000 93.594 0.000
    CHANNELS 6 Xposition Yposition Zposition Yrotation Xrotation Zrotation
    JOINT RightHip
    {
        OFFSET -9.500 -1.594 0.000
        CHANNELS 3 Yrotation Xrotation Zrotation
        JOINT RightKnee
        {
            OFFSET 0.000 -42.000 0.000
            CHANNELS 3 Yrotation Xrotation Zrotation
            JOINT RightAnkle
            {
                OFFSET 0.000 -42.000 0.000
                CHANNELS 3 Yrotation Xrotation Zrotation
                End Site
                {
                    OFFSET 0.000 -8.000 17.500
                }
            }
        }
    }
    JOINT LeftHip
    {
        OFFSET 9.500 -1.594 0.000
        CHANNELS 3 Yrotation Xrotation Zrotation
        JOINT LeftKnee
        {
            OFFSET 0.000 -42.000 0.000
            CHANNELS 3 Yrotation Xrotation Zrotation
            JOINT LeftAnkle
            {
                OFFSET 0.000 -42.000 0.000
                CHANNELS 3 Yrotation Xrotation Zrotation
                End Site
                {
                    OFFSET 0.000 -8.000 17.500
                }
            }
        }
    }
    JOINT Chest
    {
        OFFSET 0.000 14.348 0.000
        CHANNELS 3 Yrotation Xrotation Zrotation
        JOINT Chest2
        {
            OFFSET 0.000 9.746 0.000
            CHANNELS 3 Yrotation Xrotation Zrotation
            JOINT Chest3
            {
                OFFSET 0.000 10.149 0.000
                CHANNELS 3 Yrotation Xrotation Zrotation
                JOINT Chest4
                {
                    OFFSET 0.000 9.746 0.000
                    CHANNELS 3 Yrotation Xrotation Zrotation
                    JOINT Neck
                    {
                        OFFSET 0.000 10.417 0.000
                        CHANNELS 3 Yrotation Xrotation Zrotation
                        JOINT Head
                        {
                            OFFSET 0.000 9.000 0.000
                            CHANNELS 3 Yrotation Xrotation Zrotation
                            End Site
                            {
                                OFFSET 0.000 16.000 0.000
                            }
                        }
                    }
                    JOINT RightCollar
                    {
                        OFFSET -3.200 6.945 0.000
                        CHANNELS 3 Yrotation Xrotation Zrotation
                        JOINT RightShoulder
                        {
                            OFFSET -12.800 0.000 0.000
                            CHANNELS 3 Yrotation Xrotation Zrotation
                            JOINT RightElbow
                            {
OFFSET -0 -27 0.000
						CHANNELS 3 Xrotation Yrotation Zrotation
                                JOINT RightWrist
                                {
OFFSET -0 -26 0.000
						CHANNELS 3 Xrotation Yrotation Zrotation
                                    JOINT RightFinger0
                                    {
OFFSET -0.196 -2.56 3.210
						CHANNELS 3 Xrotation Yrotation Zrotation
                                        JOINT RightFinger01
                                        {
OFFSET -0 -3.788 0.000
						CHANNELS 3 Xrotation Yrotation Zrotation
                                            JOINT RightFinger0Nub
                                            {
OFFSET -0 -2.631 0.000
						CHANNELS 3 Xrotation Yrotation Zrotation
                                                End Site
                                                {
OFFSET 0 -2.256 0
                                                }
                                            }
                                        }
                                    }
                                    JOINT RightFinger1
                                    {
OFFSET -0.523 -3.316 2.035
						CHANNELS 3 Xrotation Yrotation Zrotation
                                        JOINT RightFinger11
                                        {
OFFSET 0.094 -5.366 1.028
						CHANNELS 3 Xrotation Yrotation Zrotation
                                            JOINT RightFinger12
                                            {
OFFSET -0 -3.723 0.000
						CHANNELS 3 Xrotation Yrotation Zrotation
                                                JOINT RightFinger1Nub
                                                {
OFFSET -0 -2.111 0.000
						CHANNELS 3 Xrotation Yrotation Zrotation
                                                    End Site
                                                    {
OFFSET 0 -1.857 0
                                                    }
                                                }
                                            }
                                        }
                                    }
                                    JOINT RightFinger2
                                    {
OFFSET -0.532 -3.479 0.778
						CHANNELS 3 Xrotation Yrotation Zrotation
                                        JOINT RightFinger21
                                        {
OFFSET 0.086 -5.322 0.323
						CHANNELS 3 Xrotation Yrotation Zrotation
                                            JOINT RightFinger22
                                            {
OFFSET -0 -4.062 0.000
						CHANNELS 3 Xrotation Yrotation Zrotation
                                                JOINT RightFinger2Nub
                                                {
OFFSET -0 -2.547 0.000
						CHANNELS 3 Xrotation Yrotation Zrotation
                                                    End Site
                                                    {
OFFSET 0 -2.031 0
                                                    }
                                                }
                                            }
                                        }
                                    }
                                    JOINT RightFinger3
                                    {
OFFSET -0.553 -3.461 -0.133
						CHANNELS 3 Xrotation Yrotation Zrotation
                                        JOINT RightFinger31
                                        {
OFFSET 0.023 -4.767 -0.493
						CHANNELS 3 Xrotation Yrotation Zrotation
                                            JOINT RightFinger32
                                            {
OFFSET -0 -3.541 0.000
						CHANNELS 3 Xrotation Yrotation Zrotation
                                                JOINT RightFinger3Nub
                                                {
OFFSET -0 -2.456 0.000
						CHANNELS 3 Xrotation Yrotation Zrotation
                                                    End Site
                                                    {
OFFSET 0 -1.91 0
                                                    }
                                                }
                                            }
                                        }
                                    }
                                    JOINT RightFinger4
                                    {
OFFSET -0.483 -3.251 -1.236
						CHANNELS 3 Xrotation Yrotation Zrotation
                                        JOINT RightFinger41
                                        {
OFFSET 0.023 -4.259 -1.122
						CHANNELS 3 Xrotation Yrotation Zrotation
                                            JOINT RightFinger42
                                            {
OFFSET -0 -2.835 0.000
						CHANNELS 3 Xrotation Yrotation Zrotation
                                                JOINT RightFinger4Nub
                                                {
OFFSET -0 -1.792 0.000
						CHANNELS 3 Xrotation Yrotation Zrotation
                                                    End Site
                                                    {
OFFSET 0 -1.692 0
                                                    }
                                                }
                                            }
                                        }
                                    }
                                }
                            }
                        }
                    }
                    JOINT LeftCollar
                    {
                        OFFSET 3.200 6.945 0.000
                        CHANNELS 3 Yrotation Xrotation Zrotation
                        JOINT LeftShoulder
                        {
                            OFFSET 12.800 0.000 0.000
                            CHANNELS 3 Yrotation Xrotation Zrotation
                            JOINT LeftElbow
                            {
OFFSET -0 -27 0.000
						CHANNELS 3 Xrotation Yrotation Zrotation
                                JOINT LeftWrist
                                {
OFFSET -0 -26 0.000
						CHANNELS 3 Xrotation Yrotation Zrotation
                                    JOINT LeftFinger0
                                    {
OFFSET -0.196 -2.56 3.210
						CHANNELS 3 Xrotation Yrotation Zrotation
                                        JOINT LeftFinger01
                                        {
OFFSET -0 -3.788 0.000
						CHANNELS 3 Xrotation Yrotation Zrotation
                                            JOINT LeftFinger0Nub
                                            {
OFFSET -0 -2.631 0.000
						CHANNELS 3 Xrotation Yrotation Zrotation
                                                End Site
                                                {
OFFSET 0 -2.256 0
                                                }
                                            }
                                        }
                                    }
                                    JOINT LeftFinger1
                                    {
OFFSET -0.523 -3.316 2.035
						CHANNELS 3 Xrotation Yrotation Zrotation
                                        JOINT LeftFinger11
                                        {
OFFSET 0.094 -5.366 1.028
						CHANNELS 3 Xrotation Yrotation Zrotation
                                            JOINT LeftFinger12
                                            {
OFFSET -0 -3.723 0.000
						CHANNELS 3 Xrotation Yrotation Zrotation
                                                JOINT LeftFinger1Nub
                                                {
OFFSET -0 -2.111 0.000
						CHANNELS 3 Xrotation Yrotation Zrotation
                                                    End Site
                                                    {
OFFSET 0 -1.857 0
                                                    }
                                                }
                                            }
                                        }
                                    }
                                    JOINT LeftFinger2
                                    {
OFFSET -0.532 -3.479 0.778
						CHANNELS 3 Xrotation Yrotation Zrotation
                                        JOINT LeftFinger21
                                        {
OFFSET 0.086 -5.322 0.323
						CHANNELS 3 Xrotation Yrotation Zrotation
                                            JOINT LeftFinger22
                                            {
OFFSET -0 -4.062 0.000
						CHANNELS 3 Xrotation Yrotation Zrotation
                                                JOINT LeftFinger2Nub
                                                {
OFFSET -0 -2.547 0.000
						CHANNELS 3 Xrotation Yrotation Zrotation
                                                    End Site
                                                    {
OFFSET 0 -2.031 0
                                                    }
                                                }
                                            }
                                        }
                                    }
                                    JOINT LeftFinger3
                                    {
OFFSET -0.553 -3.461 -0.133
						CHANNELS 3 Xrotation Yrotation Zrotation
                                        JOINT LeftFinger31
                                        {
OFFSET 0.023 -4.767 -0.493
						CHANNELS 3 Xrotation Yrotation Zrotation
                                            JOINT LeftFinger32
                                            {
OFFSET -0 -3.541 0.000
						CHANNELS 3 Xrotation Yrotation Zrotation
                                                JOINT LeftFinger3Nub
                                                {
OFFSET -0 -2.456 0.000
						CHANNELS 3 Xrotation Yrotation Zrotation
                                                    End Site
                                                    {
OFFSET 0 -1.91 0
                                                    }
                                                }
                                            }
                                        }
                                    }
                                    JOINT LeftFinger4
                                    {
OFFSET -0.483 -3.251 -1.236
						CHANNELS 3 Xrotation Yrotation Zrotation
                                        JOINT LeftFinger41
                                        {
OFFSET 0.023 -4.259 -1.122
						CHANNELS 3 Xrotation Yrotation Zrotation
                                            JOINT LeftFinger42
                                            {
OFFSET -0 -2.835 0.000
						CHANNELS 3 Xrotation Yrotation Zrotation
                                                JOINT LeftFinger4Nub
                                                {
OFFSET -0 -1.792 0.000
						CHANNELS 3 Xrotation Yrotation Zrotation
                                                    End Site
                                                    {
OFFSET 0 -1.692 0
                                                    }
                                                }
                                            }
                                        }
                                    }
                                }
                            }
                        }
                    }
                }
            }
        }
    }
}
MOTION

Frames: 11
Frame Time: 0.017
-229.57 88.45 77.07 79.89 -3.27 3.66 -9.21 -3.51 -12.78 -0.00 28.72 -0.00 -30.38 -13.81 15.84 -9.14 -10.25 11.14 -0.00 29.36 -0.00 9.79 2.76 -16.25 -6.53 0.75 3.87 -1.63 0.21 0.97 -2.70 0.41 1.61 0.85 2.86 -0.97 -5.22 45.12 -12.13 -12.21 35.75 -21.90 13.84 -5.14 -9.78 -10.11 2.64 -24.23 -58.93 -24.54 67.15 -20.08 11.29 2.84 -47.71 -0 26.30 15.11 -0 -3.52 -4.43 -0 0.00 0 -0 0.00 -15 -0 10.80 0 -0 20.48 0 -0 10.24 0 -0 0.00 0 -0 8.76 0 -0 8.76 0 -0 8.76 0 -0 0.00 15 -0 29.30 0 -0 29.30 0 -0 29.30 0 -0 0.00 25 -0 34.93 0 -0 34.93 0 -0 34.93 -15.62 1.72 6.25 17.77 -2.96 13.77 21.17 56.46 -106.46 -6.98 42.95 2.21 -22.04 0 -38.54 -34.02 0 5.67 14.67 0 0.00 0.00 0 0.00 -15.00 0 -8.27 0.00 0 -12.25 0.00 0 -6.13 0.00 0 0.00 0.00 0 -22.08 0.00 0 -22.08 0.00 0 -22.08 0.00 0 0.00 15.00 0 -33.63 0.00 0 -33.63 0.00 0 -33.63 0.00 0 0.00 25.00 0 -31.68 0.00 0 -31.68 0.00 0 -31.68 
-229.58 87.13 76.83 79.89 -3.27 3.66 -9.12 -3.40 -13.19 -0.00 29.10 -0.00 -30.44 -14.32 15.91 -8.66 -9.85 11.58 -0.00 29.22 0.00 7.63 1.08 -17.37 -7.22 1.49 3.43 -1.81 0.38 0.87 -2.97 0.69 1.44 0.89 2.81 -0.99 -5.19 43.80 -12.44 -10.75 35.79 -21.87 14.43 -5.58 -9.55 -7.93 1.77 -23.45 -59.71 -24.5 64.93 -19.62 11.81 2.06 -47.61 -0 26.22 15.32 -0 -3.60 -4.5 -0 0.00 0 -0 0.00 -15 -0 10.45 0 -0 20.50 0 -0 10.25 0 -0 0.00 0 -0 8.33 0 -0 8.33 0 -0 8.33 0 -0 0.00 15 -0 29.10 0 -0 29.10 0 -0 29.10 0 -0 0.00 25 -0 34.69 0 -0 34.69 0 -0 34.69 -14.13 0.75 6.65 15.99 -3.50 14.34 25.83 56.87 -110.27 -10.61 44.26 6.21 -22.06 0 -38.12 -34.07 0 6.10 15.96 0 0.00 0.00 0 0.00 -15.00 0 -7.19 0.00 0 -12.84 0.00 0 -6.42 0.00 0 0.00 0.00 0 -21.63 0.00 0 -21.63 0.00 0 -21.63 0.00 0 0.00 15.00 0 -34.58 0.00 0 -34.58 0.00 0 -34.58 0.00 0 0.00 25.00 0 -33.31 0.00 0 -33.31 0.00 0 -33.31 
-229.52 85.73 76.53 79.89 -3.27 3.66 -8.62 -3.14 -13.41 0.00 29.13 0.00 -30.92 -14.68 15.88 -8.64 -10.27 11.66 -0.00 30.61 -0.00 7.49 0.12 -17.52 -7.45 1.78 2.96 -1.86 0.45 0.76 -3.07 0.79 1.25 0.90 2.79 -0.98 -5.08 43.29 -12.43 -9.71 35.89 -21.46 14.93 -5.66 -8.36 -6.41 0.64 -24.66 -60.07 -24.78 63.18 -19.17 12.26 1.33 -47.38 -0 26.18 15.77 -0 -3.64 -4.76 -0 0.00 0 -0 0.00 -15 -0 10.10 0 -0 20.57 0 -0 10.29 0 -0 0.00 0 -0 7.98 0 -0 7.98 0 -0 7.98 0 -0 0.00 15 -0 28.75 0 -0 28.75 0 -0 28.75 0 -0 0.00 25 -0 34.33 0 -0 34.33 0 -0 34.33 -14.17 -0.35 7.09 15.90 -3.45 15.09 28.84 56.53 -112.58 -13.83 44.76 9.57 -21.94 0 -37.84 -33.83 0 6.38 16.46 0 0.00 0.00 0 0.00 -15.00 0 -4.88 0.00 0 -12.23 0.00 0 -6.12 0.00 0 0.00 0.00 0 -21.32 0.00 0 -21.32 0.00 0 -21.32 0.00 0 0.00 15.00 0 -32.81 0.00 0 -32.81 0.00 0 -32.81 0.00 0 0.00 25.00 0 -34.88 0.00 0 -34.88 0.00 0 -34.88 
-229.40 84.29 76.18 79.89 -3.27 3.66 -7.97 -2.97 -13.65 -0.00 29.13 0.00 -31.49 -14.79 15.90 -8.71 -10.60 11.62 -0.00 31.84 0.00 7.52 -0.77 -17.60 -7.51 1.74 2.53 -1.88 0.43 0.65 -3.10 0.76 1.08 0.91 2.77 -0.97 -4.97 43.24 -12.37 -8.92 36.09 -21.01 15.18 -5.92 -7.56 -5.92 -0.20 -26.07 -60.24 -24.64 62.28 -18.59 12.39 1.11 -47.2 -0 26.16 16.14 -0 -3.66 -5.18 -0 0.00 0 -0 0.00 -15 -0 9.95 0 -0 20.58 0 -0 10.29 0 -0 0.00 0 -0 7.44 0 -0 7.44 0 -0 7.44 0 -0 0.00 15 -0 28.32 0 -0 28.32 0 -0 28.32 0 -0 0.00 25 -0 33.81 0 -0 33.81 0 -0 33.81 -14.47 -1.18 7.56 17.39 -3.40 15.33 29.40 55.18 -112.75 -15.01 44.5 10.91 -21.76 0 -38.14 -33.47 0 6.07 16.59 0 0.00 0.00 0 0.00 -15.00 0 -3.72 0.00 0 -12.66 0.00 0 -6.33 0.00 0 0.00 0.00 0 -21.03 0.00 0 -21.03 0.00 0 -21.03 0.00 0 0.00 15.00 0 -32.95 0.00 0 -32.95 0.00 0 -32.95 0.00 0 0.00 25.00 0 -35.98 0.00 0 -35.98 0.00 0 -35.98 
-229.29 89.94 75.56 79.88 -4.13 3.22 -7.65 -1.15 -13.57 -0.00 27.36 -0.00 -31.84 -13.92 15.57 -8.26 -10.00 11.83 -0.00 32.64 -0.00 7.22 -2.62 -17.68 -7.85 2.11 2.33 -1.96 0.52 0.61 -3.23 0.89 1.00 0.94 2.75 -0.96 -4.92 43.17 -12.52 -8.02 36.47 -20.80 15.58 -6.10 -7.10 -5.84 0.21 -25.92 -61.8 -23.33 60.57 -18.01 12.22 1.29 -47.79 -0 25.71 14.96 -0 -4.11 -5.18 -0 0.00 0 -0 0.00 -15 -0 10.03 0 -0 20.48 0 -0 10.24 0 -0 0.00 0 -0 6.68 0 -0 6.68 0 -0 6.68 0 -0 0.00 15 -0 27.80 0 -0 27.80 0 -0 27.80 0 -0 0.00 25 -0 33.27 0 -0 33.27 0 -0 33.27 -14.12 -1.81 7.77 19.64 -3.20 15.07 27.75 53.51 -111.05 -13.91 44.1 10.14 -21.67 0 -38.60 -33.30 0 5.62 16.50 0 0.00 0.00 0 0.00 -15.00 0 -4.62 0.00 0 -12.92 0.00 0 -6.46 0.00 0 0.00 0.00 0 -21.68 0.00 0 -21.68 0.00 0 -21.68 0.00 0 0.00 15.00 0 -33.38 0.00 0 -33.38 0.00 0 -33.38 0.00 0 0.00 25.00 0 -36.54 0.00 0 -36.54 0.00 0 -36.54 
-228.96 90.76 75.04 79.88 -5.15 2.70 -7.34 -0.05 -13.54 -0.00 27.78 0.00 -32.13 -13.99 16.17 -7.48 -7.50 11.81 -0.00 29.97 -0.00 8.27 -5.75 -16.97 -8.06 2.42 2.36 -2.01 0.59 0.62 -3.31 1.01 1.02 0.96 2.73 -0.96 -4.92 43.39 -12.67 -7.59 36.82 -20.75 15.81 -5.81 -6.82 -5.81 0.48 -25.84 -62.34 -22.55 59.43 -17.62 12.29 1.43 -48.24 -0 25.58 14.06 -0 -4.24 -5.18 -0 0.00 0 -0 0.00 -15 -0 10.28 0 -0 20.38 0 -0 10.19 0 -0 0.00 0 -0 6.52 0 -0 6.52 0 -0 6.52 0 -0 0.00 15 -0 27.35 0 -0 27.35 0 -0 27.35 0 -0 0.00 25 -0 33.12 0 -0 33.12 0 -0 33.12 -13.72 -1.69 7.36 21.54 -3.27 14.52 25.80 52.15 -109.42 -11.83 43.71 8.49 -21.70 0 -39.07 -33.35 0 5.15 16.17 0 0.00 0.00 0 0.00 -15.00 0 -6.17 0.00 0 -12.75 0.00 0 -6.38 0.00 0 0.00 0.00 0 -23.01 0.00 0 -23.01 0.00 0 -23.01 0.00 0 0.00 15.00 0 -33.99 0.00 0 -33.99 0.00 0 -33.99 0.00 0 0.00 25.00 0 -36.88 0.00 0 -36.88 0.00 0 -36.88 
-228.64 90.60 74.56 81.58 -7.12 -2.30 -8.91 4.65 -9.26 -0.00 24.18 -0.00 -32.24 -12.39 15.81 -8.97 -6.83 16.10 0.00 33.88 0.00 7.89 -9.04 -16.41 -8.91 3.57 4.98 -2.21 0.89 1.30 -3.60 1.56 2.12 0.96 2.74 -0.95 -4.92 43.94 -12.67 -7.68 37.07 -20.67 15.56 -5.00 -6.56 -7.37 -0.67 -27.03 -60.33 -22.49 61.34 -17.74 12.29 1.55 -47.3 -0 26.08 15.94 -0 -3.74 -6.99 -0 0.00 0 -0 0.00 -15 -0 10.40 0 -0 20.48 0 -0 10.24 0 -0 0.00 0 -0 5.80 0 -0 5.80 0 -0 5.80 0 -0 0.00 15 -0 27.34 0 -0 27.34 0 -0 27.34 0 -0 0.00 25 -0 33.28 0 -0 33.28 0 -0 33.28 -13.71 -1.06 6.74 22.67 -3.25 13.98 23.97 51.52 -108.28 -9.45 43.41 6.39 -21.76 0 -39.70 -33.47 0 4.51 15.70 0 0.00 0.00 0 0.00 -15.00 0 -7.64 0.00 0 -12.13 0.00 0 -6.06 0.00 0 0.00 0.00 0 -24.48 0.00 0 -24.48 0.00 0 -24.48 0.00 0 0.00 15.00 0 -35.28 0.00 0 -35.28 0.00 0 -35.28 0.00 0 0.00 25.00 0 -37.36 0.00 0 -37.36 0.00 0 -37.36 
-228.61 90.36 73.98 81.98 -5.59 -1.89 -9.09 2.29 -9.91 -0.00 25.77 -0.00 -32.31 -12.61 16.95 -9.24 -8.43 15.10 0.00 34.10 0.00 8.48 -10.00 -15.66 -8.76 1.98 4.97 -2.19 0.51 1.27 -3.58 0.96 2.09 0.95 2.76 -0.93 -4.91 44.82 -12.48 -8.17 37.21 -20.48 14.92 -3.95 -6.30 -10.17 -1.33 -27.93 -58.08 -22.02 64.18 -18.21 11.89 1.87 -47.39 -0 26.03 15.77 -0 -3.79 -5.58 -0 0.00 0 -0 0.00 -15 -0 10.49 0 -0 20.69 0 -0 10.35 0 -0 0.00 0 -0 5.89 0 -0 5.89 0 -0 5.89 0 -0 0.00 15 -0 27.84 0 -0 27.84 0 -0 27.84 0 -0 0.00 25 -0 32.91 0 -0 32.91 0 -0 32.91 -14.41 -0.18 5.86 23.18 -2.96 13.79 21.53 51.87 -106.84 -7.08 43.09 3.92 -21.72 0 -40.43 -33.38 0 3.79 15.36 0 0.00 0.00 0 0.00 -15.00 0 -8.63 0.00 0 -11.76 0.00 0 -5.88 0.00 0 0.00 0.00 0 -25.80 0.00 0 -25.80 0.00 0 -25.80 0.00 0 0.00 15.00 0 -37.10 0.00 0 -37.10 0.00 0 -37.10 0.00 0 0.00 25.00 0 -37.74 0.00 0 -37.74 0.00 0 -37.74 
-228.46 90.23 73.22 82.38 -4.54 -1.42 -10.08 0.95 -11.04 -0.00 25.95 0.00 -31.48 -12.13 17.84 -9.79 -9.20 13.94 0.00 33.67 -0.00 9.19 -10.27 -15.10 -8.56 0.58 4.88 -2.15 0.18 1.23 -3.53 0.42 2.02 0.93 2.78 -0.90 -4.89 45.84 -12.26 -8.72 37.38 -20.26 14.26 -2.63 -6.47 -15.30 -0.03 -29.72 -57.83 -22.14 68.80 -18.56 10.94 2.32 -47.5 -0 25.98 15.55 -0 -3.84 -4.74 -0 0.00 0 -0 0.00 -15 -0 10.56 0 -0 20.84 0 -0 10.42 0 -0 0.00 0 -0 6.17 0 -0 6.17 0 -0 6.17 0 -0 0.00 15 -0 28.50 0 -0 28.50 0 -0 28.50 0 -0 0.00 25 -0 32.50 0 -0 32.50 0 -0 32.50 -15.36 1.00 4.86 23.44 -2.66 14 17.87 52.84 -104.34 -5.24 42.81 1.66 -21.50 0 -41.05 -32.95 0 3.17 15.06 0 0.00 0.00 0 0.00 -15.00 0 -9.02 0.00 0 -11.29 0.00 0 -5.64 0.00 0 0.00 0.00 0 -26.57 0.00 0 -26.57 0.00 0 -26.57 0.00 0 0.00 15.00 0 -38.79 0.00 0 -38.79 0.00 0 -38.79 0.00 0 0.00 25.00 0 -37.80 0.00 0 -37.80 0.00 0 -37.80 
-228.32 90.14 72.62 82.75 -3.75 -1.10 -10.90 0.07 -11.88 0.00 25.79 0.00 -30.83 -11.42 18.59 -10.77 -9.64 12.92 -0.00 33.28 -0.00 10.05 -10.27 -14.80 -8.35 -0.53 4.75 -2.10 -0.08 1.18 -3.47 -0.00 1.95 0.90 2.80 -0.88 -4.84 46.74 -12.00 -9.11 37.51 -19.94 13.53 -1.49 -6.95 -16.24 1.17 -29.35 -57.21 -22.53 69.07 -18.85 10.32 3.04 -47.58 -0 25.92 15.37 -0 -3.90 -4.3 -0 0.00 0 -0 0.00 -15 -0 10.55 0 -0 20.85 0 -0 10.43 0 -0 0.00 0 -0 6.49 0 -0 6.49 0 -0 6.49 0 -0 0.00 15 -0 29.04 0 -0 29.04 0 -0 29.04 0 -0 0.00 25 -0 33.00 0 -0 33.00 0 -0 33.00 -16.26 2.22 4.06 23.62 -2.52 14.58 13.73 53.82 -101.26 -4.08 42.39 0.05 -21.13 0 -41.44 -32.22 0 2.78 14.77 0 0.00 0.00 0 0.00 -15.00 0 -9.03 0.00 0 -10.90 0.00 0 -5.45 0.00 0 0.00 0.00 0 -26.31 0.00 0 -26.31 0.00 0 -26.31 0.00 0 0.00 15.00 0 -38.44 0.00 0 -38.44 0.00 0 -38.44 0.00 0 0.00 25.00 0 -37.26 0.00 0 -37.26 0.00 0 -37.26 
-228.14 90.07 71.99 83.10 -2.97 -0.80 -12.39 -0.90 -12.83 0.00 25.47 0.00 -29.39 -10.39 18.98 -11.68 -9.99 12.02 0.00 32.85 0.00 10.79 -10.25 -14.59 -8.55 -1.05 4.65 -2.15 -0.20 1.14 -3.56 -0.20 1.90 0.90 2.80 -0.88 -4.84 46.74 -12.00 -9.11 37.51 -19.94 13.63 -1.09 -7.55 -17.06 2.40 -28.77 -57.46 -22.71 68.90 -19.09 9.96 3.55 -47.61 -0 25.89 15.31 -0 -3.93 -4.03 -0 0.00 0 -0 0.00 -15 -0 10.66 0 -0 20.80 0 -0 10.40 0 -0 0.00 0 -0 6.85 0 -0 6.85 0 -0 6.85 0 -0 0.00 15 -0 29.42 0 -0 29.42 0 -0 29.42 0 -0 0.00 25 -0 35.61 0 -0 35.61 0 -0 35.61 -16.33 2.77 3.50 23.63 -2.79 15.26 9.49 54.8 -97.63 -3.49 41.69 -0.91 -20.79 0 -41.42 -31.53 0 2.79 14.42 0 0.00 0.00 0 0.00 -15.00 0 -8.67 0.00 0 -9.45 0.00 0 -4.73 0.00 0 0.00 0.00 0 -25.37 0.00 0 -25.37 0.00 0 -25.37 0.00 0 0.00 15.00 0 -37.60 0.00 0 -37.60 0.00 0 -37.60 0.00 0 0.00 25.00 0 -36.25 0.00 0 -36.25 0.00 0 -36.25 
